<?xml version="1.0" standalone="no"?>
<!DOCTYPE svg PUBLIC "-//W3C//DTD SVG 20010904//EN"
 "http://www.w3.org/TR/2001/REC-SVG-20010904/DTD/svg10.dtd">
<svg version="1.0" xmlns="http://www.w3.org/2000/svg"
 width="128.000000pt" height="256.000000pt" viewBox="0 0 128.000000 256.000000"
 preserveAspectRatio="xMidYMid meet">

<g transform="translate(0.000000,256.000000) scale(0.100000,-0.100000)"
fill="#000000" stroke="none">
<path d="M805 2191 l-36 -49 -30 15 c-27 14 -32 13 -49 -2 -11 -10 -19 -27
-18 -39 2 -17 8 -21 28 -19 49 6 91 -27 126 -97 17 -36 41 -73 53 -84 20 -18
51 -16 51 4 0 6 -4 8 -10 5 -5 -3 -10 -1 -10 4 0 15 13 14 29 -1 11 -11 12 -9
6 10 -3 12 -2 22 3 22 5 0 17 12 27 26 16 25 16 26 -5 19 -17 -6 -21 -4 -14 6
6 12 5 12 -9 0 -15 -12 -17 -11 -17 8 0 11 -4 21 -10 21 -5 0 -10 5 -10 10 0
7 6 8 17 2 12 -7 24 -4 44 11 28 20 31 41 5 31 -7 -3 -13 2 -13 10 0 8 5 12
10 9 5 -3 8 0 5 7 -2 8 -14 14 -26 15 -12 1 -23 4 -24 6 -2 2 -9 15 -16 29
-12 23 -11 23 13 -4 14 -15 29 -26 32 -22 8 7 -36 56 -50 56 -6 0 -18 -7 -28
-16 -15 -14 -17 -14 -15 3 0 10 4 20 8 23 4 3 -2 11 -12 18 -18 11 -24 7 -55
-37z m45 25 c0 -3 -4 -8 -10 -11 -5 -3 -10 -1 -10 4 0 6 5 11 10 11 6 0 10 -2
10 -4z m-6 -118 c23 -24 28 -31 11 -17 -16 14 -41 33 -55 42 -13 10 -19 17
-12 17 7 0 32 -19 56 -42z m25 -82 c-2 -2 -13 8 -23 22 l-19 27 24 -22 c12
-12 21 -24 18 -27z m37 -23 c-3 -8 -6 -17 -6 -19 0 -3 -5 -2 -11 2 -8 4 -7 9
2 15 10 6 11 9 2 9 -7 0 -13 4 -13 10 0 5 7 7 16 3 8 -3 13 -12 10 -20z"/>
<path d="M613 1893 c-7 -3 -13 -10 -13 -15 0 -6 3 -9 6 -5 3 3 17 2 30 -3 15
-6 24 -6 24 0 0 13 -32 28 -47 23z"/>
<path d="M732 1839 c2 -7 10 -15 17 -17 8 -3 12 1 9 9 -2 7 -10 15 -17 17 -8
3 -12 -1 -9 -9z"/>
<path d="M590 1804 c0 -6 6 -17 14 -23 17 -14 28 -51 15 -51 -5 0 -9 -7 -9
-15 0 -8 5 -15 12 -15 8 0 6 -6 -5 -17 -12 -12 -20 -14 -28 -6 -8 8 -8 13 0
17 6 4 11 12 11 17 0 6 -6 7 -12 3 -7 -5 -27 -7 -45 -5 -25 2 -36 -4 -55 -30
-13 -17 -22 -36 -20 -41 1 -5 -2 -6 -9 -3 -9 6 -49 -26 -49 -40 0 -9 -36 -41
-53 -48 -9 -3 -17 -11 -17 -17 0 -5 -7 -10 -15 -10 -8 0 -21 -15 -29 -34 -17
-41 -36 -55 -36 -27 0 11 5 23 10 26 6 3 10 11 10 18 0 6 -7 2 -15 -9 -8 -10
-15 -15 -15 -11 0 5 -12 -1 -26 -12 -15 -12 -32 -21 -39 -21 -7 0 -15 -7 -19
-15 -3 -8 -17 -15 -31 -15 -14 0 -28 -7 -32 -16 -4 -11 -13 -14 -32 -9 -17 4
-22 3 -12 -4 8 -5 10 -14 6 -22 -5 -7 2 -5 16 4 29 21 43 22 35 1 -3 -8 -2
-12 3 -9 5 3 12 1 15 -4 4 -5 -4 -11 -16 -13 -14 -2 -24 -12 -28 -27 -6 -25
-30 -42 -30 -21 0 6 -5 8 -11 5 -6 -4 -8 -9 -5 -12 2 -3 -2 -23 -10 -45 -18
-52 -18 -64 1 -48 8 7 15 19 15 27 0 8 5 11 10 8 5 -3 10 -22 10 -41 0 -19 5
-34 10 -34 17 0 23 28 13 57 -10 30 -7 53 7 53 5 0 12 -9 15 -20 3 -11 11 -20
17 -20 7 0 6 5 -2 15 -9 11 -8 19 7 39 21 30 36 32 57 10 15 -14 16 -13 16 13
0 34 43 71 112 98 26 9 45 21 42 26 -3 5 0 9 6 9 6 0 31 19 55 41 l45 42 0
-41 c0 -47 8 -72 22 -72 6 0 6 6 -1 14 -9 10 -9 20 -2 33 6 10 13 48 16 86 4
37 11 67 16 67 5 0 9 -8 9 -18 0 -27 11 -34 30 -17 17 16 134 55 164 55 19 0
19 0 0 -21 -10 -12 -45 -34 -77 -49 l-59 -28 28 29 c18 19 23 29 13 29 -16 0
-69 -71 -69 -93 0 -26 -12 -47 -26 -47 -12 0 -19 -24 -15 -56 1 -7 -9 -9 -23
-7 -13 3 -27 0 -30 -6 -7 -11 -36 -4 -36 10 0 4 7 6 16 2 22 -8 15 26 -9 41
-14 8 -20 8 -27 -4 -5 -8 -8 -21 -5 -27 2 -7 -3 -13 -12 -13 -12 0 -13 -3 -4
-14 10 -11 8 -17 -6 -26 -17 -11 -16 -11 2 -5 31 11 67 16 109 16 21 0 36 3
33 6 -8 7 11 43 22 43 4 0 13 -17 20 -37 6 -21 18 -47 26 -58 15 -19 15 -19
29 0 46 63 41 61 61 29 10 -16 34 -45 53 -65 l34 -37 -23 -23 -23 -23 -9 22
c-10 22 -57 32 -57 12 0 -5 11 -10 24 -10 25 0 27 -4 41 -64 6 -26 4 -28 -20
-24 -21 4 -23 3 -14 -9 20 -24 -2 -32 -96 -37 -50 -2 -104 -7 -122 -11 -45
-10 -80 1 -89 28 -11 31 -6 74 11 108 14 26 14 29 0 29 -10 0 -15 -9 -15 -27
0 -21 -3 -24 -12 -15 -8 8 -20 4 -46 -19 -19 -17 -40 -28 -47 -25 -10 4 -12
-4 -8 -30 4 -22 2 -34 -6 -34 -6 0 -11 11 -11 25 0 16 -6 25 -15 25 -8 0 -15
-6 -15 -14 0 -19 48 -76 63 -76 7 0 17 -17 24 -37 10 -32 9 -41 -4 -55 -11
-12 -14 -27 -10 -48 6 -28 5 -30 -13 -20 -16 8 -20 8 -20 -4 0 -8 5 -18 10
-21 6 -3 10 -15 10 -27 0 -17 -3 -18 -15 -8 -8 7 -23 9 -36 5 l-22 -7 23 -18
23 -17 -45 -34 c-25 -19 -79 -52 -121 -74 -42 -22 -77 -43 -77 -46 0 -4 17 -9
38 -11 26 -4 45 1 64 14 15 10 34 15 45 12 13 -4 15 -3 4 4 -15 11 -5 24 64
77 47 37 57 37 65 5 l6 -25 18 27 c13 19 15 32 8 45 -8 15 0 29 45 77 42 46
57 56 64 45 12 -19 11 -6 -2 28 -6 15 -17 46 -24 68 l-13 40 42 1 c22 1 96 4
164 9 l122 7 0 -24 c0 -25 27 -58 48 -58 17 0 45 47 39 64 -3 8 1 20 9 26 18
16 18 47 -1 84 -20 38 -19 43 5 21 11 -10 20 -15 20 -10 0 4 7 2 15 -5 27 -22
14 -120 -16 -120 -6 0 -3 10 5 22 18 26 20 66 5 88 -8 11 -9 7 -4 -17 4 -19 1
-41 -6 -55 -7 -13 -14 -36 -15 -51 -2 -30 -29 -67 -50 -67 -7 0 -16 -16 -20
-35 -7 -41 -10 -42 -34 -13 -17 22 -18 21 -39 -71 -26 -114 -26 -151 -2 -183
11 -14 26 -43 33 -66 11 -36 15 -39 33 -30 37 19 75 62 75 84 0 13 8 25 19 29
31 9 71 56 71 82 0 15 15 38 41 63 35 33 40 43 35 67 -11 46 -6 114 10 138 12
18 13 28 4 44 -7 15 -8 27 0 40 16 30 13 81 -5 81 -8 0 -34 8 -58 19 -23 10
-57 24 -76 32 -50 19 -96 60 -79 70 10 7 9 9 -3 9 -9 0 -23 8 -30 18 -7 9 -10
14 -5 10 21 -18 41 11 41 59 0 42 -3 48 -23 51 -12 2 -36 -3 -52 -12 -17 -8
-30 -13 -30 -11 0 1 20 28 44 59 l44 57 48 -68 c27 -37 52 -71 55 -76 8 -12
82 1 74 13 -3 4 7 18 21 29 30 24 53 28 35 8 -6 -8 -8 -17 -5 -20 4 -4 -3 -5
-15 -2 -27 5 -27 -6 1 -24 18 -11 23 -11 27 0 2 7 15 23 27 36 19 19 28 22 43
13 28 -14 35 -13 47 13 9 21 8 22 -23 19 -20 -3 -33 0 -33 7 0 6 -6 11 -14 11
-20 0 -36 23 -27 38 12 20 60 42 76 35 11 -3 15 2 15 17 0 19 -4 21 -22 15
-13 -4 -36 -7 -52 -6 -18 0 -35 -8 -46 -21 -10 -13 -28 -21 -47 -21 l-30 0 25
-22 25 -22 -32 -11 c-17 -6 -29 -7 -26 -2 3 5 -4 14 -15 20 -11 6 -20 21 -20
35 0 13 -7 28 -16 33 -10 6 -17 25 -19 54 -1 26 -6 51 -9 57 -11 18 -41 13
-80 -14 -40 -27 -56 -31 -56 -14 0 5 4 8 9 4 16 -9 24 15 11 30 -10 12 -10 18
-1 29 10 12 6 12 -30 3 -38 -9 -44 -8 -55 9 -28 42 -43 58 -44 48z m-50 -114
c0 -5 -7 -10 -16 -10 -8 0 -12 5 -9 10 3 6 10 10 16 10 5 0 9 -4 9 -10z m-35
-52 c-1 -13 -8 -34 -14 -48 -10 -23 -11 -22 -8 15 1 22 7 43 12 47 14 10 14
11 10 -14z m292 -24 c-3 -3 -12 -4 -19 -1 -8 3 -5 6 6 6 11 1 17 -2 13 -5z
m-26 -213 c-6 -10 -7 -21 -4 -25 12 -12 -14 -6 -33 8 -16 12 -16 15 -4 19 8 3
22 8 30 10 8 3 16 6 18 6 1 1 -2 -7 -7 -18z m-53 -311 c-15 -24 -22 -19 -13 9
3 12 11 19 16 16 5 -4 3 -14 -3 -25z m113 -113 l-20 -21 17 36 c10 21 18 29
20 20 2 -8 -5 -24 -17 -35z"/>
<path d="M272 1540 c-10 -16 -8 -18 8 -17 11 1 20 7 20 14 0 21 -15 23 -28 3z"/>
<path d="M545 1350 c-3 -5 -1 -10 4 -10 6 0 11 5 11 10 0 6 -2 10 -4 10 -3 0
-8 -4 -11 -10z"/>
<path d="M394 1328 c-16 -12 -32 -27 -36 -33 -5 -6 -8 -3 -8 8 0 9 -5 17 -10
17 -6 0 -8 -11 -4 -25 5 -21 1 -27 -22 -38 -16 -6 -30 -20 -30 -30 -2 -18 -1
-18 20 0 11 10 23 21 26 25 3 4 19 8 35 11 17 2 30 8 30 13 0 15 16 35 23 30
4 -2 8 7 8 20 2 29 3 29 -32 2z"/>
<path d="M768 1333 c7 -3 16 -2 19 1 4 3 -2 6 -13 5 -11 0 -14 -3 -6 -6z"/>
<path d="M870 1324 c0 -1 12 -9 26 -19 15 -10 23 -12 19 -4 -6 8 -4 11 7 7 9
-4 37 -9 64 -13 27 -3 60 -8 74 -11 l25 -4 -25 15 -25 14 24 1 c13 0 21 3 18
7 -5 5 -207 12 -207 7z"/>
<path d="M596 1272 c-3 -6 -2 -13 4 -17 6 -4 7 -12 4 -18 -5 -9 -4 -9 6 0 8 7
9 16 2 28 -6 11 -12 14 -16 7z"/>
<path d="M625 1220 c-3 -5 1 -10 9 -10 9 0 16 5 16 10 0 6 -4 10 -9 10 -6 0
-13 -4 -16 -10z"/>
<path d="M575 1210 c-3 -5 -1 -10 4 -10 6 0 11 5 11 10 0 6 -2 10 -4 10 -3 0
-8 -4 -11 -10z"/>
<path d="M155 1159 c-4 -5 -11 -7 -16 -4 -5 4 -9 0 -9 -7 0 -10 -3 -9 -10 2
-5 8 -11 12 -14 10 -2 -3 2 -14 10 -24 8 -11 14 -14 14 -8 0 7 7 12 16 12 9 0
12 -5 8 -12 -6 -9 -3 -9 9 0 9 8 21 11 27 7 17 -10 11 -1 -10 17 -11 10 -22
13 -25 7z"/>
<path d="M182 1089 c-3 -37 7 -57 19 -38 12 19 11 32 -1 24 -5 -3 -10 1 -10
10 0 11 5 15 15 11 21 -8 19 1 -3 13 -15 8 -18 5 -20 -20z"/>
<path d="M116 1075 c-3 -8 3 -19 14 -25 24 -13 43 -13 35 0 -3 6 -15 10 -25
10 -13 0 -17 5 -14 15 4 8 4 15 1 15 -3 0 -7 -7 -11 -15z"/>
<path d="M215 1020 c-4 -6 -1 -17 5 -25 6 -8 9 -19 5 -25 -8 -14 -35 -13 -35
2 0 6 -2 9 -5 6 -11 -11 8 -39 23 -33 17 6 44 -13 36 -26 -3 -5 0 -9 5 -9 17
0 4 71 -15 85 -9 6 -14 17 -10 23 4 7 5 12 2 12 -3 0 -8 -5 -11 -10z"/>
<path d="M713 975 c-3 -9 -3 -19 1 -22 3 -4 6 1 6 11 0 10 5 14 12 10 7 -4 8
-3 4 4 -10 16 -15 15 -23 -3z"/>
<path d="M222 900 c7 -10 14 -18 15 -16 6 6 -9 36 -18 36 -5 0 -4 -9 3 -20z"/>
<path d="M417 860 c-10 -16 -16 -30 -14 -30 2 0 13 14 25 30 13 17 19 30 14
30 -4 0 -16 -13 -25 -30z"/>
<path d="M420 750 c-14 -11 -38 -20 -53 -20 -25 0 -27 -3 -21 -22 19 -60 30
-77 44 -68 36 23 47 -1 22 -47 -10 -18 -8 -31 9 -75 25 -65 60 -118 77 -118 7
0 10 -4 7 -10 -10 -16 8 -11 35 10 14 11 31 20 38 20 10 0 12 11 8 43 -3 23
-8 67 -11 99 -5 42 -15 68 -40 104 -19 26 -37 61 -40 76 -8 34 -38 37 -75 8z"/>
<path d="M302 708 c-7 -7 -12 -9 -12 -5 0 4 -14 0 -31 -8 -17 -9 -44 -17 -60
-17 -19 -1 -26 -5 -20 -11 6 -6 19 -6 38 1 71 26 70 25 49 8 -11 -9 -17 -19
-13 -22 4 -4 2 -13 -4 -21 -9 -11 -1 -13 45 -13 l56 0 -16 38 c-9 20 -17 43
-17 50 0 15 0 15 -15 0z"/>
<path d="M48 573 c12 -2 32 -2 45 0 12 2 2 4 -23 4 -25 0 -35 -2 -22 -4z"/>
<path d="M370 548 c0 -8 -20 -33 -45 -54 l-44 -39 30 -5 31 -5 -77 -82 c-42
-46 -72 -83 -66 -83 23 0 179 40 216 55 32 14 37 19 25 29 -9 6 -14 23 -12 39
2 16 -7 54 -19 85 -26 63 -39 84 -39 60z"/>
<path d="M775 383 c5 -26 3 -32 -16 -38 -17 -6 -27 -2 -40 14 -14 17 -18 18
-23 6 -3 -8 -3 -22 0 -30 4 -8 1 -15 -6 -15 -6 0 2 -17 19 -37 17 -21 26 -40
21 -41 -6 -2 -3 -10 7 -17 15 -11 18 -28 18 -90 0 -62 3 -78 17 -86 12 -7 24
-6 37 0 29 16 65 81 63 113 -2 19 2 28 12 28 22 0 26 12 15 56 -6 21 -12 55
-13 74 -5 51 -5 52 -18 48 -7 -3 -21 6 -31 19 -10 13 -26 23 -35 22 -14 0 -14
-2 2 -8 17 -7 18 -8 3 -14 -10 -4 -21 0 -27 11 -9 13 -10 10 -5 -15z m-41 -67
c8 3 16 -4 19 -15 3 -12 1 -21 -4 -21 -5 0 -9 4 -9 9 0 5 -9 13 -20 16 -12 4
-17 11 -13 18 5 8 8 8 10 0 3 -7 10 -10 17 -7z m57 1 c-6 -8 -8 -17 -4 -21 4
-4 0 -4 -10 0 -22 8 -22 21 1 27 9 3 19 5 21 6 2 0 -2 -5 -8 -12z m35 -80 c1
-17 -1 -24 -3 -14 -2 9 -9 17 -15 17 -6 0 -6 6 2 15 16 19 15 20 16 -18z"/>
<path d="M645 200 c-9 -53 -29 -74 -57 -59 -17 9 -19 17 -14 50 l6 39 -34 -2
c-31 -3 -33 -5 -20 -19 8 -9 11 -19 7 -22 -3 -4 -1 -7 6 -7 7 0 9 -4 6 -10 -3
-5 -1 -10 5 -10 7 0 9 -7 6 -16 -4 -9 -2 -13 5 -8 6 4 14 2 18 -3 9 -14 83
-25 75 -11 -4 6 -1 9 5 7 20 -7 16 -23 -8 -34 -11 -5 -21 -17 -22 -25 0 -10
-2 -11 -6 -2 -2 6 -16 12 -30 12 -14 0 -38 10 -55 21 -27 20 -30 26 -25 60 3
22 1 37 -4 33 -11 -6 -12 -84 -1 -100 4 -6 15 -10 25 -8 10 1 16 -3 14 -9 -3
-7 -9 -11 -14 -10 -5 1 -9 -14 -9 -33 l1 -34 53 0 c45 0 52 3 52 20 0 11 5 20
10 20 11 0 60 100 60 123 0 8 -7 20 -15 27 -9 8 -15 9 -15 2 0 -6 5 -14 10
-17 17 -11 11 -23 -9 -18 -16 4 -18 12 -15 44 6 51 -2 50 -11 -1z m-70 -146
c-9 -9 -19 -13 -23 -10 -3 4 0 11 8 16 24 15 33 11 15 -6z m42 -10 c-3 -3 -12
-4 -19 -1 -8 3 -5 6 6 6 11 1 17 -2 13 -5z"/>
</g>
</svg>
